<?xml version="1.0" encoding="UTF-8"?>
<svg fill="#FFFFFF" width="100pt" height="100pt" version="1.1" viewBox="0 0 100 100" xmlns="http://www.w3.org/2000/svg">
 <path d="m12 36v28h1v-28zm1.5 0v28h2v-28zm2.5 0v28h1v-28zm2 0v28h1v-28zm2 0v28h1v-28zm1.5 0v28h4v-28zm4.5 0v28h1v-28zm1.5 0v28h2v-28zm2.5 0v28h1v-28zm3 0v28h1v-28zm1.5 0v28h2v-28zm3 0v28h2v-28zm2.5 0v28h1v-28zm2 0v28h1v-28zm2 0v28h1v-28zm1.5 0v28h2v-28zm2.5 0v28h1v-28zm2 0v28h1v-28zm2 0v28h1v-28zm1.5 0v28h2v-28zm2.5 0v28h1v-28zm1.5 0v28h2v-28zm3.5 0v28h1v-28zm2 0v28h1v-28zm1.5 0v28h2v-28zm2.5 0v28h1v-28zm2 0v28h1v-28zm2 0v28h1v-28zm1.5 0v28h2v-28zm3 0v28h2v-28zm2.5 0v28h1v-28zm2 0v28h1v-28zm2 0v28h1v-28zm1.5 0v28h2v-28zm3.5 0v28h1v-28z"/>
</svg>
