<?xml version="1.0" encoding="UTF-8"?>
<svg fill="#FFFFFF" width="100pt" height="100pt" version="1.1" viewBox="0 0 100 100" xmlns="http://www.w3.org/2000/svg">
 <g>
  <path d="m80.301 9.8008h-60.602c-1 0-1.8008-0.89844-1.6016-1.8008l0.60156-3.5c0.10156-0.80078 0.80078-1.3008 1.6016-1.3008h59.5c0.80078 0 1.5 0.60156 1.6016 1.3008l0.60156 3.5c0.097656 0.89844-0.70312 1.8008-1.7031 1.8008z"/>
  <path d="m88.898 16.602l-0.69922-4c-0.19922-0.89844-1-1.5-1.8984-1.5h-72.602c-1 0-1.8008 0.60156-1.8984 1.5l-0.69922 4c-0.19922 1.1016 0.69922 2.1016 1.8984 2.1016h3.8008l9.5977 74.297c0.30078 2.1992 2.1992 3.8984 4.3984 3.8984h38.5c2.1992 0 4.1016-1.6992 4.3984-3.8984l9.6016-74.301h3.7031c1.1992 0 2.1016-1 1.8984-2.0977zm-15.398 54.199h-47l-3.8984-30.301h54.699z"/>
  <path d="m50 69.102c-7.3984 0-13.398-6-13.398-13.398s6-13.398 13.398-13.398 13.398 6 13.398 13.398-6 13.398-13.398 13.398zm0-23.703c-5.6992 0-10.398 4.6992-10.398 10.398 0 5.7031 4.6992 10.305 10.398 10.305s10.398-4.6992 10.398-10.398c0-5.7031-4.6992-10.305-10.398-10.305z"/>
  <path d="m49.199 55.398c1.3008-3.3984 3.8984-5.3008 5.5-6.1992 0.19922-0.10156 0.19922-0.39844 0-0.5-2.5-1-6.1016 0-8.8008 2.8008-2.8008 2.8008-3.8984 6.6016-2.6992 9.1016 0.19922 0.30078 0.5 0.5 0.80078 0.30078 1.3008-0.60156 4-2.2031 5.1992-5.5039z"/>
  <path d="m56.801 50.699c-0.19922-0.30078-0.5-0.39844-0.89844-0.30078-1.3008 0.69922-3.8984 2.3008-5.1992 5.6016-0.60156 1.6992-1.6016 3-2.6016 4s-2.1016 1.8008-3 2.1992c-0.19922 0.10156-0.19922 0.39844 0 0.5 2.5 1.1016 6.1016 0.10156 8.8984-2.6992 3.1016-3 4.1016-6.8008 2.8008-9.3008z"/>
 </g>
</svg>
