<?xml version="1.0" encoding="UTF-8"?>
<svg fill="#FFFFFF" width="100pt" height="100pt" version="1.1" viewBox="0 0 100 100" xmlns="http://www.w3.org/2000/svg">
 <path d="m71.105 30.051c-3.4336-4.3086-8.0234-7.4258-13.27-9.0156-10.246-3.1016-21.793 0.0625-28.934 9.0156-9.2031 11.543-7.3945 28.305 4 37.656 4.4414 3.6445 10.328 5.5977 11.918 5.5977 0.54297 0 0.87109-0.37109 0.94922-0.78906 0.097657-0.51172-0.17578-1.0273-0.75781-1.1445-3.4375-0.69531-6.7148-2.1328-9.5781-4.1836 0.26172-0.14844 0.5-0.30078 0.66797-0.43359 0 0 1.0156-0.66016 1.418-1.9102 2.6953 2.9609 6.3672 4.0273 9.8477 2.7305v5.2188 4.8047c0 3.3711 5.8594 3.3711 5.8594 0v-4.7891-5.3867c3.6836 1.418 7.3984 0.61719 10.309-2.8672 1.5234-1.8281 3-5.7656 3.5078-9.8203 0.65625 0.1875 1.4375 0.26953 1.8398 0.28906 0.875 0.042968 3.3477-1.1055 5.1953-1.3594-2.457 8.6992-9.5703 15.527-18.426 17.574-0.64062 0.14844-0.87109 0.73438-0.69531 1.2656 0.14062 0.42969 0.55078 0.76953 1.1367 0.63672 9.9883-2.3047 17.918-10.25 20.203-20.246 0.44922-1.9688 0.67969-4 0.67969-6.0352 0-6.1836-2.0312-11.992-5.8711-16.809zm-32.383 33.246c-1.5273-1.832-3.0391-6.4805-3.2227-10.668l12.457 12.457c-2.9766 1.6992-6.5117 1.4766-9.2344-1.7891zm-1.8477-12.051c4.4297 0.16797 8.9883 1.7422 10.645 3.2148 4.0234 3.5859 2.7344 7.4648 1.8008 9.2305zm25.16 12.051c-4.1289 4.9531-8.7656 1.9336-9.5234 1.7461-0.375-0.14453-0.69922 0.019531-0.92188 0.32031-0.22656 0.30078-0.35156 0.73828-0.31641 1.1172v11.117c0 0.78516-1.9531 0.78125-1.9531 0v-11.016c0.23828-0.16016 0.53516-0.37109 0.76953-0.55469 0.35156-0.27734 0.87891-1.0234 1.3164-2.0703 0.86328-2.0625 1.3828-5.293-0.45703-8.4062-0.51172-0.86719-1.207-1.7266-2.1289-2.5469-1.332-1.1875-3.9648-2.3242-6.9453-3.0234-0.14844-0.98438-1.2344-2.9414-1.2344-2.9414-0.625-2.3242 2.3203-3.2539 0.80859-6.1289-2.7852-5.2969-6.8281-0.15234-8.5469 0.50781-2.4727 0.95312-2.6406 0.53516-2.332-1.0352 0.55078-2.8086 3.1289-6.5859 0.41016-9.7773 6.4844-7.5977 16.512-10.359 25.578-7.9023 0.011718 1.7695 0.37891 3.625 0.47266 4.6953 0.14844 1.7266-0.023438 1.5469-1.1914 1.5547-6.3906 0.035156-9.4336 5.2891-6.0391 8.1094 2.2695 1.8828-2.0039 4.1016-0.48828 8.0898 3.1094 8.1758 11.043-0.070313 12.914 0.8125 0 0 0.50781 2.5 1.2852 3.3477-4.4141 0.24219-9.4102 1.7617-11.57 3.6875-0.40234 0.35938-0.40625 1-0.046875 1.4023s0.94531 0.41406 1.3477 0.054687c1.7305-1.5391 6.3672-3.0547 10.648-3.2188l-10.492 10.492c-0.38281 0.38281-0.38281 1 0 1.3828 0.38281 0.38281 1 0.38281 1.3828 0l10.484-10.484c-0.19141 4.1875-1.7031 8.8359-3.2305 10.668z"/>
</svg>
