<?xml version="1.0" encoding="UTF-8"?>
<svg fill="#FFFFFF" width="100pt" height="100pt" version="1.1" viewBox="0 0 100 100" xmlns="http://www.w3.org/2000/svg">
 <g fill-rule="evenodd">
  <path d="m50 51.348c-0.089844 0-0.17969-0.011718-0.26953-0.035156l-23.461-6.5234v18.875c3.0312 0.12109 6.2344 0.56641 9.4727 1.3711 5.6875 1.4141 10.559 3.6992 14.086 6.375h0.42578c3.5273-2.6758 8.3984-4.9609 14.086-6.375 3.2383-0.80469 6.4414-1.25 9.4727-1.3711l-0.003906-18.895-23.539 6.5391c-0.089843 0.027344-0.17969 0.039062-0.26953 0.039062z"/>
  <path d="m84.371 49.562v-9.8008l2.9258-0.8125-37.297-10.363-37.297 10.359 37.297 10.363 31.699-8.8086h0.67188v9.0469c-1.1602 0.34766-2.0156 1.4219-2.0156 2.7031v6.1719h5.9883v-6.1719c0-1.2656-0.83203-2.3281-1.9727-2.6875z"/>
 </g>
</svg>
