<?xml version="1.0" encoding="UTF-8"?>
<svg fill="#FFFFFF" width="100pt" height="100pt" version="1.1" viewBox="0 0 100 100" xmlns="http://www.w3.org/2000/svg">
 <path d="m53.57 46.543c0.92969 0 1.6719 0.33203 2.2266 0.99609 0.55469 0.66406 0.82812 1.668 0.82812 3.0078h4.8477c0-2.1797-0.5625-3.9531-1.6836-5.3203-1.1133-1.3594-2.6602-2.1875-4.6406-2.4727v-3.6367h-2.6836v3.5859c-2 0.19922-3.6055 0.90625-4.8125 2.1055-1.207 1.207-1.8125 2.7656-1.8125 4.6445 0 1.0977 0.17578 2.0391 0.51953 2.832 0.35547 0.79297 0.84766 1.4805 1.4805 2.0703 0.63281 0.58594 1.3906 1.1055 2.2695 1.5586 0.88672 0.45313 1.9375 0.90625 3.1484 1.3672 1.2188 0.45703 2.0781 0.95703 2.5898 1.5 0.50781 0.54297 0.76172 1.2695 0.76172 2.1875 0 0.88281-0.28516 1.582-0.85547 2.1055-0.56641 0.51953-1.3555 0.76953-2.3281 0.76953-1.1875 0-2.0938-0.35547-2.7305-1.0625-0.63281-0.70703-0.9375-1.7305-0.9375-3.0625h-4.8516c0 2.2891 0.63281 4.125 1.8945 5.5156 1.2578 1.3789 3.0195 2.1875 5.3125 2.4375l0.003907 3.3203h2.6602v-3.3359c2.0781-0.21094 3.707-0.91016 4.8945-2.1055 1.1836-1.1836 1.7695-2.7266 1.7695-4.625 0-1.0156-0.14453-1.8945-0.47266-2.6719-0.3125-0.76562-0.76562-1.4414-1.3555-2.043-0.59766-0.59766-1.3164-1.1328-2.1875-1.6055-0.85547-0.48047-1.957-0.98047-3.293-1.5195-1.3359-0.54297-2.2461-1.0625-2.7383-1.5742-0.48828-0.51562-0.73438-1.1875-0.73438-2.043 0-0.91406 0.25391-1.6367 0.75781-2.1445 0.52734-0.52344 1.2344-0.78125 2.1523-0.78125zm32.242-18.863h-65.23c-3.9492 0-7.168 3.2148-7.168 7.168v40.41c0 3.9531 3.2188 7.168 7.1719 7.168l65.223 0.003907c3.9531 0 7.1719-3.2148 7.1719-7.168v-40.41c0-3.957-3.2188-7.1719-7.168-7.1719zm-32.621 48.363c-11.57 0-20.984-9.4141-20.984-20.984 0-11.562 9.4141-20.98 20.984-20.98 11.57 0 20.988 9.4141 20.988 20.98 0.003906 11.57-9.4141 20.984-20.988 20.984zm32.055-52.688c-0.76172-3.8789-4.5312-6.418-8.4102-5.6484l-35.66 6.9805h44.332zm-78.094 15.289l3.2578 16.617v-20.41c0-1.4727 0.32031-2.8711 0.89062-4.1367-3 1.3203-4.8008 4.582-4.1484 7.9297z"/>
</svg>
