<?xml version="1.0" encoding="UTF-8"?>
<svg fill="#FFFFFF" width="100pt" height="100pt" version="1.1" viewBox="0 0 100 100" xmlns="http://www.w3.org/2000/svg">
 <path d="m24.754 87.227h15.91v-12.645h-15.914c-2.8125 0.003907-4.9844-0.73047-5.6641-1.9023-0.67969-1.1758-0.22656-3.4219 1.1836-5.8555l5.4297-9.4023 5.832 3.3672-4.7812-17.836-17.832 4.7773 5.832 3.3672-5.4297 9.4023c-3.7695 6.5273-4.1992 13.27-1.1836 18.5 3.0195 5.2305 9.0742 8.2266 16.617 8.2266zm24.988-67.645c1.3594 0 3.0742 1.5156 4.4844 3.9531l5.4297 9.4023-5.8359 3.3672 17.836 4.7773 4.7812-17.832-5.832 3.3672-5.4297-9.4062c-3.7695-6.5273-9.3945-10.273-15.434-10.273-6.0352 0-11.66 3.7461-15.43 10.273l-7.957 13.781 10.949 6.3203 7.957-13.777c1.4102-2.4375 3.125-3.9531 4.4805-3.9531zm1.082 61.32l13.055 13.059v-6.7344l10.859-0.003906c7.5391 0 13.598-2.9961 16.613-8.2266 3.0195-5.2305 2.5859-11.973-1.1836-18.5l-7.9531-13.781-10.949 6.3242 7.9531 13.777c1.4062 2.4375 1.8594 4.6836 1.1836 5.8555-0.67969 1.1758-2.8477 1.9062-5.6602 1.9023l-10.863 0.007812v-6.7305z"/>
</svg>
